<svg width="19" height="19" viewBox="0 0 19 19" fill="none" xmlns="http://www.w3.org/2000/svg">
<path d="M3.83894 6.47012C4.82605 5.35313 5.61648 4.10996 5.52 2.74248C5.51072 2.60332 5.51257 2.46416 5.5033 2.32686C5.49773 2.26006 5.54783 2.20254 5.61648 2.19697C5.6573 2.19512 5.69626 2.19141 5.73523 2.19141C8.70769 2.19141 11.1179 4.49219 11.1179 7.3292C11.1179 7.54258 11.1031 7.75039 11.0753 7.95635C11.0604 8.06953 11.194 8.13633 11.2757 8.05654C12.1329 7.229 12.6988 6.12871 12.812 4.89854C12.8194 4.81318 12.914 4.76309 12.992 4.80762C14.9662 5.96729 16.2854 8.0417 16.2854 10.4167C16.2854 13.1313 14.5617 15.4617 12.1013 16.4655C11.656 16.6474 11.1606 16.6733 10.6968 16.5397C9.63357 16.2355 8.62791 15.6732 7.78552 14.855C7.47009 14.547 7.19548 14.2148 6.95242 13.8679C6.89675 13.7862 6.77244 13.8048 6.74275 13.8957C6.49226 14.6212 6.37351 15.3782 6.38464 16.1371C6.3865 16.2262 6.29373 16.2855 6.21208 16.2466C4.01335 15.1463 2.50671 12.9531 2.50671 10.4167C2.50671 9.00283 2.95388 7.64277 3.74988 6.57031" fill="#FFEE2E"/>
</svg>
